<?xml version="1.0" encoding="UTF-8"?>
<svg version="1.1" xmlns="http://www.w3.org/2000/svg" width="500" height="500">
<path d="M0 0 C0.79842603 -0.00173517 1.59685206 -0.00347034 2.41947281 -0.00525808 C3.14238493 -0.00737901 3.86529704 -0.00949994 4.61011559 -0.01168513 C15.49696519 0.09369953 24.6353277 3.64001121 32.74920094 10.96442652 C39.98166473 18.7828895 43.81186789 28.06963194 43.85538685 38.76671839 C43.86062353 39.40943384 43.86586021 40.0521493 43.87125558 40.71434098 C43.88614642 42.84814181 43.88695829 44.98170054 43.88762867 47.11554956 C43.89525764 48.65374637 43.90368639 50.19193939 43.91285145 51.73012781 C43.9347332 55.89568289 43.94358704 60.06116459 43.9486779 64.22677064 C43.95232956 66.83419944 43.95857387 69.44160925 43.96567929 72.04903078 C43.99015372 81.1597539 44.00322093 90.27042026 44.0067693 99.38117456 C44.01040099 107.85010697 44.04027511 116.3186762 44.08217388 124.7874977 C44.11696295 132.07695054 44.13231924 139.36628353 44.13301533 146.65581876 C44.13380534 151.00124323 44.14241581 155.34629753 44.171013 159.69163561 C44.1973414 163.78354215 44.19931754 167.87477552 44.18335736 171.96672869 C44.18155441 173.45977491 44.18812814 174.95286118 44.20417607 176.44582224 C44.33291769 189.21173836 41.60630124 200.51514618 32.58123219 210.00739527 C25.07873601 216.85478783 17.46407854 219.46900585 7.44832814 219.39507532 C6.56241753 219.40046086 5.67650693 219.4058464 4.76375055 219.41139513 C1.81295612 219.42563414 -1.13738714 219.41858099 -4.0882014 219.411448 C-6.21106374 219.41715371 -8.33392301 219.42411875 -10.45677745 219.43224573 C-16.21096821 219.45017067 -21.96500642 219.44900987 -27.7192167 219.44330335 C-32.52779684 219.44021033 -37.33634772 219.44630527 -42.14492369 219.45234209 C-53.49176372 219.46638375 -64.83852846 219.46482919 -76.18536937 219.45344019 C-87.88017439 219.44196111 -99.57475002 219.45603207 -111.26952481 219.48283666 C-121.32073103 219.50500921 -131.37186534 219.51162747 -141.42309427 219.50576025 C-147.42161009 219.50239301 -153.41997889 219.50479041 -159.41847408 219.52201128 C-165.06074181 219.53750281 -170.70267037 219.53350006 -176.34492481 219.51470613 C-178.41125411 219.51102631 -180.47760867 219.51411096 -182.54391468 219.52459192 C-202.51336799 219.61812088 -202.51336799 219.61812088 -210.41876781 215.00739527 C-211.47064281 214.42989527 -212.52251781 213.85239527 -213.60626781 213.25739527 C-221.12245098 207.24444873 -226.08361974 200.36111553 -228.41876781 191.00739527 C-228.67603672 187.6780076 -228.67603672 187.6780076 -228.68619335 184.16541529 C-228.69072446 183.51382716 -228.69525557 182.86223903 -228.69992399 182.19090581 C-228.71249318 180.02712261 -228.71095253 177.86359353 -228.70929515 175.69977808 C-228.71528516 174.14025537 -228.72209179 172.58073562 -228.72965038 171.02121973 C-228.74727106 166.7978739 -228.75200414 162.57460919 -228.75328195 158.35123014 C-228.75470651 155.70829733 -228.7589819 153.06538494 -228.76427639 150.42245722 C-228.78276471 141.18968895 -228.79094863 131.95697831 -228.78937328 122.72419214 C-228.78817269 114.13827707 -228.80926189 105.55261371 -228.84086061 96.9667623 C-228.86707492 89.57881266 -228.8777384 82.19094495 -228.87646246 74.80294919 C-228.87595428 70.39781491 -228.8815574 65.99290438 -228.90281856 61.58781672 C-228.92228775 57.44099044 -228.92226668 53.29459935 -228.9077853 49.14775705 C-228.9057067 47.63333606 -228.91034097 46.1188872 -228.92250621 44.60451365 C-229.02223756 31.31992624 -226.81975896 20.85055983 -217.41876781 11.00739527 C-206.37173558 0.71826754 -194.641796 0.41854008 -180.34235179 0.46149683 C-178.41460897 0.45275183 -176.4868734 0.44226283 -174.55914867 0.43017054 C-169.34643475 0.4023862 -164.13395853 0.3989044 -158.92118132 0.39989042 C-153.4547523 0.39675097 -147.98842863 0.37110607 -142.52205455 0.3479104 C-132.17039875 0.30738774 -121.8188058 0.28702188 -111.46708292 0.27393651 C-99.71510366 0.25809413 -87.96323268 0.21965248 -76.21131587 0.17934322 C-57.92949756 0.11708309 -39.64768691 0.06720638 -21.36578929 0.03571558 C-20.45307577 0.03413887 -19.54036224 0.03256216 -18.59999073 0.03093767 C-16.03754373 0.02660589 -13.47509655 0.02245705 -10.91264904 0.01844263 C-10.17916899 0.01728016 -9.44568895 0.01611769 -8.68998224 0.01492 C-7.30269113 0.01289943 -5.91539942 0.01124526 -4.5281074 0.00999546 C-3.01873574 0.00813485 -1.50936576 0.00461481 0 0 Z M-47.85626781 19.13239527 C-49.80949725 21.97285033 -49.80949725 21.97285033 -48.66876781 25.31989527 C-48.25626781 26.20677027 -47.84376781 27.09364527 -47.41876781 28.00739527 C-42.82797078 29.15888543 -42.82797078 29.15888543 -38.48126781 27.94489527 C-36.94321568 25.14021198 -37.0256604 23.15225452 -37.41876781 20.00739527 C-38.48221833 18.02709845 -38.48221833 18.02709845 -40.41876781 17.00739527 C-44.04779482 16.26297947 -45.03793306 16.67538549 -47.85626781 19.13239527 Z M-23.66876781 18.13239527 C-25.70184959 19.95379937 -25.70184959 19.95379937 -25.85626781 23.00739527 C-25.62614638 25.93473359 -25.62614638 25.93473359 -24.29376781 27.88239527 C-21.50770739 29.55403152 -19.59887919 29.47116151 -16.41876781 29.00739527 C-14.32112616 27.48844721 -14.32112616 27.48844721 -13.41876781 25.00739527 C-13.41201855 21.88059428 -13.41201855 21.88059428 -14.41876781 19.00739527 C-17.90131088 16.68569989 -19.84160494 16.21881383 -23.66876781 18.13239527 Z M-0.85626781 19.13239527 C-2.79601163 21.96029594 -2.79601163 21.96029594 -1.73126781 25.25739527 C-0.67635458 27.86100138 -0.67635458 27.86100138 0.58123219 29.00739527 C3.49700129 29.42441649 3.49700129 29.42441649 6.58123219 29.00739527 C8.67887384 27.48844721 8.67887384 27.48844721 9.58123219 25.00739527 C9.36085591 21.33445731 9.21156673 19.6377298 6.58123219 17.00739527 C2.97178268 16.34249667 1.94597639 16.68941315 -0.85626781 19.13239527 Z M-207.41876781 46.00739527 C-207.51667999 47.50833571 -207.54508577 49.01386963 -207.54575145 50.51800013 C-207.54857128 51.49252634 -207.5513911 52.46705256 -207.55429637 53.47110987 C-207.55227214 54.54905817 -207.55024791 55.62700647 -207.54816234 56.73761988 C-207.54991466 57.8659675 -207.55166698 58.99431513 -207.5534724 60.15685511 C-207.557894 63.9078318 -207.55495164 67.6587618 -207.55158031 71.40973902 C-207.55225331 74.00426731 -207.5532233 76.59879554 -207.55447948 79.19332361 C-207.55595691 84.64006185 -207.55389526 90.08678237 -207.5491389 95.53351831 C-207.54369902 101.83588352 -207.54545697 108.13821637 -207.55096531 114.44058079 C-207.55604565 120.49488059 -207.55551344 126.54916453 -207.55258358 132.60346651 C-207.55191449 135.18356884 -207.55274208 137.76367199 -207.55506313 140.34377337 C-207.55759129 143.94513014 -207.55374655 147.54642405 -207.54816234 151.14777613 C-207.55018657 152.2237002 -207.5522108 153.29962427 -207.55429637 154.4081521 C-207.55147655 155.38549814 -207.54865673 156.36284418 -207.54575145 157.36980677 C-207.54537443 158.22208825 -207.5449974 159.07436974 -207.54460895 159.95247793 C-207.54943947 162.07247356 -207.54943947 162.07247356 -206.41876781 164.00739527 C-131.17876781 164.00739527 -55.93876781 164.00739527 21.58123219 164.00739527 C23.26402875 159.80040387 23.82996215 158.26720218 23.78377736 154.07824183 C23.77811253 153.11215494 23.77244771 152.14606806 23.76661122 151.15070581 C23.75006993 150.102698 23.73352864 149.05469019 23.7164861 147.97492456 C23.70702458 146.86228739 23.69756306 145.74965021 23.68781483 144.60329676 C23.65416343 140.92923441 23.60604007 137.25551132 23.55779469 133.58161402 C23.5316249 131.03286101 23.50635811 128.48409858 23.48195851 125.93532801 C23.42214191 119.91467146 23.35322541 113.89418573 23.27988768 107.87368423 C23.19688107 101.01767397 23.1255178 94.16155789 23.05512178 87.30540836 C22.91009387 73.20591511 22.75047897 59.10661711 22.58123219 45.00739527 C19.37022255 43.40189045 15.87552573 43.87073919 12.34862721 43.88041162 C11.48699963 43.87885163 10.62537205 43.87729164 9.73763454 43.87568438 C6.83294427 43.8716767 3.92830572 43.87486328 1.023615 43.87800074 C-1.05246055 43.87664647 -3.12853585 43.8748664 -5.20461071 43.87269068 C-10.86021656 43.86811593 -16.51580425 43.86990697 -22.17141044 43.87306976 C-28.09193714 43.87559719 -34.01246225 43.87325438 -39.932989 43.8716836 C-49.89000275 43.86986132 -59.84700909 43.87226796 -69.80402172 43.87702417 C-81.29291201 43.882449 -92.7817845 43.88071736 -104.27067435 43.87519777 C-114.14006781 43.87064687 -124.00945593 43.87002629 -133.8788501 43.87263644 C-139.77021835 43.87419066 -145.66157827 43.87441684 -151.55294597 43.87109995 C-157.10475221 43.86819315 -162.65653576 43.87024819 -168.20833957 43.87599421 C-170.23750764 43.87730759 -172.26667764 43.87695209 -174.29584491 43.87473154 C-191.87209447 42.43725875 -191.87209447 42.43725875 -207.41876781 46.00739527 Z M-101.41876781 185.00739527 C-102.87024684 187.91035332 -102.79115806 189.78001306 -102.41876781 193.00739527 C-100.40531636 196.55794335 -100.40531636 196.55794335 -97.41876781 199.00739527 C-94.24773164 199.81592348 -91.59583685 199.77288473 -88.41876781 199.00739527 C-85.00905065 196.59217895 -83.73536159 194.95717661 -82.41876781 191.00739527 C-82.41876781 187.38136354 -83.21037756 185.84675416 -85.41876781 183.00739527 C-91.30884914 179.08067438 -96.6457707 180.08976188 -101.41876781 185.00739527 Z " fill="#0C0C0F" transform="translate(342.41876780986786,113.99260473251343)"/>
<path d="M0 0 C0.7361554 0.00090637 1.47231079 0.00181274 2.23077393 0.00274658 C3.00653275 -0.00397064 3.78229156 -0.01068787 4.58155823 -0.01760864 C7.15357821 -0.03665288 9.72533817 -0.04051597 12.29742432 -0.04266357 C14.08099985 -0.0490868 15.8645743 -0.0558148 17.64814758 -0.06283569 C21.38990727 -0.07482437 25.13157451 -0.07851486 28.87335205 -0.07733154 C33.6733773 -0.07712821 38.47281144 -0.10443802 43.2726965 -0.13887596 C46.95724726 -0.16108822 50.64165446 -0.16517084 54.32626534 -0.16411209 C56.09614666 -0.16647633 57.86603146 -0.1753459 59.63584709 -0.19077682 C62.10931954 -0.21032385 64.58150043 -0.20464431 67.05499268 -0.19256592 C67.78912384 -0.20380493 68.523255 -0.21504395 69.27963257 -0.22662354 C74.24697523 -0.16483079 74.24697523 -0.16483079 76.62442017 2.19970703 C77.67333368 4.22708046 78.66743485 6.21922249 79.53179932 8.33233643 C79.83795166 9.07741455 80.144104 9.82249268 80.45953369 10.59014893 C80.92262939 11.7425708 80.92262939 11.7425708 81.39508057 12.91827393 C81.7154126 13.69428955 82.03574463 14.47030518 82.36578369 15.26983643 C84.70758057 21.02196862 84.70758057 21.02196862 84.70758057 23.29327393 C85.41914307 23.12440674 86.13070557 22.95553955 86.86383057 22.78155518 C92.75436917 21.77013028 98.71486728 22.05779169 103.83258057 25.23077393 C106.76827612 28.46003903 107.09473979 30.87658307 107.07086182 35.25421143 C106.46723454 38.64231293 104.29198576 40.21314291 101.70758057 42.29327393 C101.37758057 42.62327393 101.04758057 42.95327393 100.70758057 43.29327393 C99.02575175 43.39816227 97.33951377 43.43292278 95.6544342 43.44044495 C94.55947632 43.44760025 93.46451843 43.45475555 92.33638 43.46212769 C91.1244548 43.46481659 89.9125296 43.46750549 88.66387939 43.47027588 C86.76154037 43.48013268 86.76154037 43.48013268 84.82077026 43.4901886 C81.33087484 43.50762571 77.84099315 43.51815852 74.35106492 43.52639413 C72.17087136 43.5315404 69.9906821 43.53761642 67.81049156 43.54390526 C60.989988 43.56296813 54.16949533 43.57719479 47.34897023 43.58551723 C39.47491269 43.59528334 31.60113674 43.62158158 23.72717839 43.66201812 C17.64303595 43.69219055 11.55897413 43.70698731 5.47475833 43.71029824 C1.84039917 43.71264823 -1.79365955 43.72160075 -5.42793846 43.74675941 C-9.48605384 43.77439627 -13.54354208 43.77020561 -17.60174561 43.76324463 C-19.40445168 43.78245972 -19.40445168 43.78245972 -21.24357605 43.80206299 C-27.52001319 43.76276615 -31.58185647 43.64326691 -36.29241943 39.29327393 C-37.89971936 36.07867407 -37.91172799 32.7693929 -37.29241943 29.29327393 C-34.85491943 26.35577393 -34.85491943 26.35577393 -32.29241943 24.29327393 C-31.96241943 23.96327393 -31.63241943 23.63327393 -31.29241943 23.29327393 C-28.5958709 23.22007771 -25.92550485 23.20084855 -23.22991943 23.23077393 C-22.47130615 23.23528564 -21.71269287 23.23979736 -20.93109131 23.2444458 C-19.05150072 23.25626713 -17.17195045 23.27420315 -15.29241943 23.29327393 C-15.0545874 22.40188721 -15.0545874 22.40188721 -14.81195068 21.49249268 C-8.7934054 0.11169369 -8.7934054 0.11169369 0 0 Z " fill="#0B0B0D" transform="translate(215.29241943359375,340.70672607421875)"/>
<path d="M0 0 C1.14151297 3.42453892 0.92347609 3.82101792 -0.4765625 6.95703125 C-0.98533936 8.12177979 -0.98533936 8.12177979 -1.50439453 9.31005859 C-1.87419434 10.13586426 -2.24399414 10.96166992 -2.625 11.8125 C-3.36703693 13.52888925 -4.10660344 15.24634854 -4.84375 16.96484375 C-5.20984375 17.81546387 -5.5759375 18.66608398 -5.953125 19.54248047 C-7.41116038 22.96519133 -8.79794815 26.39886141 -10.125 29.875 C-10.74761719 31.47988281 -10.74761719 31.47988281 -11.3828125 33.1171875 C-12.13224257 36.61768999 -11.42307901 37.77748057 -10 41 C-9.37428262 42.5856546 -8.74929596 44.17159772 -8.125 45.7578125 C-7.41675978 47.54691186 -6.70842377 49.33597331 -6 51.125 C-5.64421875 52.03121094 -5.2884375 52.93742187 -4.921875 53.87109375 C-4.57640625 54.74121094 -4.2309375 55.61132812 -3.875 56.5078125 C-3.56304687 57.29816895 -3.25109375 58.08852539 -2.9296875 58.90283203 C-1.96854375 61.23124378 -1.96854375 61.23124378 0 64 C-0.53029069 70.1867247 -3.70970756 76.28914092 -6 82 C-7.74906659 82.19601608 -9.49931846 82.38147403 -11.25 82.5625 C-12.71179688 82.71912109 -12.71179688 82.71912109 -14.203125 82.87890625 C-16.7631352 82.98974468 -18.58148159 82.77738092 -21 82 C-20.79503906 81.29875 -20.59007812 80.5975 -20.37890625 79.875 C-16.86761306 69.51734323 -16.86761306 69.51734323 -18.625 59.25 C-18.99625 58.60160156 -19.3675 57.95320313 -19.75 57.28515625 C-21.79256255 53.5510966 -23.26566401 49.58126245 -24.8515625 45.63671875 C-25.97407929 42.84789038 -25.97407929 42.84789038 -28 40 C-27.68977576 34.42693858 -26.39861802 29.68252577 -24.3125 24.5078125 C-23.91865112 23.4997908 -23.91865112 23.4997908 -23.5168457 22.47140503 C-22.68647273 20.3524425 -21.84339747 18.23880717 -21 16.125 C-20.43407107 14.68521975 -19.8689596 13.2451179 -19.3046875 11.8046875 C-15.2726337 1.54526741 -15.2726337 1.54526741 -14 -1 C-11.85546875 -1.484375 -11.85546875 -1.484375 -9.1875 -1.75 C-7.87845703 -1.89695313 -7.87845703 -1.89695313 -6.54296875 -2.046875 C-3.73656755 -1.9951441 -2.29948585 -1.59155425 0 0 Z " fill="#0A0B0E" transform="translate(339,177)"/>
<path d="M0 0 C1.51400391 0.01740234 1.51400391 0.01740234 3.05859375 0.03515625 C4.07050781 0.04417969 5.08242188 0.05320313 6.125 0.0625 C7.29869141 0.07990234 7.29869141 0.07990234 8.49609375 0.09765625 C10.36054822 4.63374266 10.66239317 7.09277859 9.08203125 11.73046875 C8.73269531 12.78492188 8.38335937 13.839375 8.0234375 14.92578125 C7.64316406 16.01375 7.26289063 17.10171875 6.87109375 18.22265625 C6.51402344 19.28742188 6.15695312 20.3521875 5.7890625 21.44921875 C4.33025124 25.78878727 2.84876865 30.11777211 1.29833984 34.42553711 C0.92531738 35.48393799 0.55229492 36.54233887 0.16796875 37.6328125 C-0.17395508 38.580354 -0.51587891 39.52789551 -0.86816406 40.50415039 C-1.97303446 45.01146154 -0.42049215 48.0411929 1.49609375 52.09765625 C2.29243943 53.98722207 3.08765393 55.87736085 3.86181641 57.77612305 C4.39843643 59.0880203 4.94836781 60.39457293 5.51318359 61.69458008 C7.70799292 66.9343593 8.36906968 70.70944352 6.40234375 76.08984375 C4.44921875 80.09375 4.44921875 80.09375 2.49609375 84.09765625 C-2.12390625 84.09765625 -6.74390625 84.09765625 -11.50390625 84.09765625 C-12.50390625 79.09765625 -12.50390625 79.09765625 -11.00390625 76.22265625 C-7.9569066 69.87474032 -11.41398289 62.75386228 -13.50390625 56.41015625 C-14.04657659 54.7399091 -14.58827889 53.06934705 -15.12890625 51.3984375 C-15.36867188 50.66794189 -15.6084375 49.93744629 -15.85546875 49.18481445 C-16.06945312 48.49605225 -16.2834375 47.80729004 -16.50390625 47.09765625 C-16.72175781 46.43652832 -16.93960937 45.77540039 -17.1640625 45.09423828 C-17.58542883 42.61871111 -17.14380495 41.21432129 -16.31640625 38.8515625 C-16.03297363 38.02366211 -15.74954102 37.19576172 -15.45751953 36.34277344 C-15.14282715 35.45750977 -14.82813477 34.57224609 -14.50390625 33.66015625 C-13.85504278 31.78139706 -13.20661884 29.90248603 -12.55859375 28.0234375 C-12.22053711 27.0535791 -11.88248047 26.0837207 -11.53417969 25.08447266 C-10.50133675 22.09020713 -9.50082342 19.08710099 -8.51171875 16.078125 C-8.19589844 15.11769287 -7.88007813 14.15726074 -7.5546875 13.16772461 C-6.94424088 11.30821278 -6.33484174 9.44835671 -5.7265625 7.58813477 C-5.44941406 6.75080811 -5.17226563 5.91348145 -4.88671875 5.05078125 C-4.64324707 4.30989258 -4.39977539 3.56900391 -4.14892578 2.80566406 C-3.14260089 0.14092184 -2.96046924 0.11546292 0 0 Z " fill="#0A0B0D" transform="translate(296.50390625,174.90234375)"/>
<path d="M0 0 C4.62 0 9.24 0 14 0 C17.84587675 7.1090449 20.69315563 14.35253781 23.39257812 21.94946289 C25.0389865 26.54296043 26.84982609 30.89097211 29.0625 35.25 C30.72933624 38.79134388 31.03767727 39.71742045 30.5 43.75 C30.005 44.8225 29.51 45.895 29 47 C26.89698717 51.80439671 24.9522017 56.6460214 23.125 61.5625 C22.86960449 62.24634766 22.61420898 62.93019531 22.35107422 63.63476562 C19.83371489 70.39968171 17.40972588 77.19606811 15 84 C10.38 84 5.76 84 1 84 C1.75839385 79.44963689 2.53971553 76.1924531 4.1796875 72.0078125 C4.61410156 70.89019531 5.04851562 69.77257812 5.49609375 68.62109375 C5.95113281 67.46738281 6.40617188 66.31367188 6.875 65.125 C8.19489789 61.74347486 9.51434024 58.36182359 10.82714844 54.97753906 C11.53586537 53.17830682 12.26301007 51.38597553 13.02441406 49.60839844 C15.58482512 43.48263683 14.75920329 39.76859442 12.3984375 33.8203125 C11.73050655 32.2524026 11.05569639 30.6874102 10.375 29.125 C10.02252197 28.29871094 9.67004395 27.47242188 9.30688477 26.62109375 C7.54068733 22.49562297 5.73308544 18.39134355 3.87890625 14.3046875 C3.38801514 13.21389893 3.38801514 13.21389893 2.88720703 12.10107422 C2.2657375 10.72617273 1.63552102 9.35518329 0.99560547 7.98876953 C-1.11095565 3.33286694 -1.11095565 3.33286694 0 0 Z " fill="#07080B" transform="translate(158,175)"/>
<path d="M0 0 C1.25477646 -0.00637985 2.50955292 -0.0127597 3.80235291 -0.01933289 C5.18276939 -0.02086145 6.56318638 -0.02197547 7.94360352 -0.02270508 C9.34985896 -0.025916 10.75611405 -0.02927995 12.16236877 -0.03279114 C15.11395034 -0.03878864 18.06550261 -0.04063041 21.01708984 -0.04003906 C24.80481022 -0.03993742 28.59234324 -0.05358917 32.38001919 -0.07081127 C35.28559741 -0.08191375 38.1911301 -0.08395881 41.09672737 -0.08342934 C42.49341541 -0.08461212 43.89010452 -0.08905054 45.28677177 -0.0967617 C47.23803178 -0.10652558 49.1893464 -0.10242867 51.140625 -0.09765625 C52.2523558 -0.09908127 53.36408661 -0.10050629 54.50950623 -0.10197449 C57.13500977 0.14526367 57.13500977 0.14526367 59.13500977 2.14526367 C59.36547852 4.67651367 59.36547852 4.67651367 59.32250977 7.64526367 C59.31606445 8.62495117 59.30961914 9.60463867 59.30297852 10.61401367 C59.13500977 13.14526367 59.13500977 13.14526367 58.13500977 15.14526367 C37.01500977 15.14526367 15.89500977 15.14526367 -5.86499023 15.14526367 C-7.95113086 8.88684178 -7.99550509 7.20893428 -6.86499023 1.14526367 C-5.07626136 -0.6434652 -2.41610153 0.00829003 0 0 Z " fill="#070809" transform="translate(203.864990234375,225.854736328125)"/>
<path d="M0 0 C2.61877441 -0.3742218 2.61877441 -0.3742218 5.97851562 -0.37231445 C7.23321655 -0.37854324 8.48791748 -0.38477203 9.78063965 -0.39118958 C11.15584712 -0.38250175 12.53105074 -0.3731838 13.90625 -0.36328125 C15.31107584 -0.36276279 16.71590242 -0.36327996 18.12072754 -0.36479187 C21.0664349 -0.36470209 24.01186888 -0.35426167 26.95751953 -0.33618164 C30.73740364 -0.31349399 34.51688814 -0.31294966 38.29682159 -0.31969929 C41.19813604 -0.32303741 44.09935902 -0.3164122 47.00065613 -0.30657005 C48.39454164 -0.30271503 49.78843733 -0.30157109 51.18232727 -0.3031559 C53.12873612 -0.30352587 55.07513166 -0.28944472 57.02148438 -0.2746582 C58.68455627 -0.26774712 58.68455627 -0.26774712 60.38122559 -0.26069641 C63 0 63 0 65 2 C65.265625 4.53125 65.265625 4.53125 65.25 7.5 C65.25773437 8.96953125 65.25773437 8.96953125 65.265625 10.46875 C65 13 65 13 63 15 C60.68061829 15.24723816 60.68061829 15.24723816 57.7434082 15.24291992 C56.644991 15.24599655 55.54657379 15.24907318 54.41487122 15.25224304 C52.62589668 15.24146477 52.62589668 15.24146477 50.80078125 15.23046875 C49.57723434 15.23001053 48.35368744 15.22955231 47.09306335 15.2290802 C44.49798619 15.22605353 41.9029109 15.21815495 39.30786133 15.20581055 C35.34645092 15.1876556 31.38527562 15.18530016 27.42382812 15.18554688 C24.90364382 15.18062771 22.3834611 15.17479767 19.86328125 15.16796875 C18.68075272 15.16685593 17.49822418 15.1657431 16.27986145 15.16459656 C10.7511608 15.13293888 5.44464992 14.98854687 0 14 C-1.79885972 10.17742309 -2.36703674 7.2209225 -2 3 C-1.34 2.01 -0.68 1.02 0 0 Z " fill="#07080A" transform="translate(198,177)"/>
<path d="M0 0 C1.46657043 -0.00472824 1.46657043 -0.00472824 2.96276855 -0.009552 C4.0262854 -0.00752777 5.08980225 -0.00550354 6.18554688 -0.00341797 C7.81127625 -0.00485306 7.81127625 -0.00485306 9.46984863 -0.00631714 C11.76652077 -0.00699912 14.06319482 -0.00514358 16.35986328 -0.00097656 C19.88904115 0.00437141 23.41809174 -0.00092097 26.94726562 -0.00732422 C29.17252632 -0.00666344 31.39778694 -0.00538228 33.62304688 -0.00341797 C34.68656372 -0.0054422 35.75008057 -0.00746643 36.8458252 -0.009552 C37.82353882 -0.00639984 38.80125244 -0.00324768 39.80859375 0 C40.67383667 0.00079559 41.53907959 0.00159119 42.43054199 0.00241089 C44.40429688 0.12939453 44.40429688 0.12939453 45.40429688 1.12939453 C45.50322627 3.2942025 45.53400788 5.46233238 45.52929688 7.62939453 C45.53316406 9.40830078 45.53316406 9.40830078 45.53710938 11.22314453 C45.40429688 14.12939453 45.40429688 14.12939453 44.40429688 15.12939453 C42.94703469 15.23280027 41.4848365 15.26789746 40.02392578 15.2746582 C38.62710068 15.28422798 38.62710068 15.28422798 37.20205688 15.29399109 C36.18856171 15.29510391 35.17506653 15.29621674 34.13085938 15.29736328 C33.09617523 15.30069168 32.06149109 15.30402008 30.99545288 15.30744934 C28.8013351 15.31252358 26.60720958 15.31485751 24.41308594 15.31469727 C21.05065198 15.31688066 17.68854757 15.33502275 14.32617188 15.35400391 C12.19856884 15.3569383 10.07096423 15.35892279 7.94335938 15.35986328 C6.93391266 15.3670488 5.92446594 15.37423431 4.88442993 15.38163757 C3.94690887 15.37856094 3.00938782 15.37548431 2.04345703 15.37231445 C0.80554916 15.37445198 0.80554916 15.37445198 -0.45736694 15.37663269 C-2.59570312 15.12939453 -2.59570312 15.12939453 -5.59570312 13.12939453 C-5.92382812 10.34423828 -5.92382812 10.34423828 -5.84570312 7.06689453 C-5.83023438 5.98279297 -5.81476563 4.89869141 -5.79882812 3.78173828 C-5.46300447 -0.6033437 -3.9825482 0.00366196 0 0 Z " fill="#060709" transform="translate(202.595703125,200.87060546875)"/>
<path d="M0 0 C0.38671875 1.03898438 0.7734375 2.07796875 1.171875 3.1484375 C1.69787551 4.55730703 2.22392017 5.96616009 2.75 7.375 C3.15726318 8.47013916 3.15726318 8.47013916 3.57275391 9.58740234 C5.36415592 14.38107126 7.2585395 19.11069464 9.3359375 23.7890625 C11.55845246 31.18872997 8.19797511 36.44415103 5 43 C0.38 43 -4.24 43 -9 43 C-10 38 -10 38 -8.5 35.125 C-6.1941955 30.32124062 -7.32166787 26.98484732 -9.00390625 22.0625 C-9.7330268 19.98946038 -10.48328434 17.92369331 -11.2578125 15.8671875 C-12.07282834 12.71865263 -12.07325982 11.05386491 -11 8 C-9.58984375 6.48828125 -9.58984375 6.48828125 -7.9375 5.3125 C-6.968125 4.549375 -5.99875 3.78625 -5 3 C-5 2.34 -5 1.68 -5 1 C-3 0 -3 0 0 0 Z " fill="#0D0E10" transform="translate(294,216)"/>
<path d="M0 0 C0.99 0.33 1.98 0.66 3 1 C3.99 1 4.98 1 6 1 C6.66 1 7.32 1 8 1 C8 1.66 8 2.32 8 3 C7.01 3.8971875 7.01 3.8971875 6 4.8125 C3.77793084 6.81972376 3.77793084 6.81972376 3.6875 9.5 C3.94610157 11.97618442 3.94610157 11.97618442 4.5625 14.25 C4.7790625 15.11625 4.7790625 15.11625 5 16 C4 17 4 17 0.83984375 17.09765625 C-0.44792969 17.08605469 -1.73570312 17.07445312 -3.0625 17.0625 C-4.35285156 17.05347656 -5.64320313 17.04445313 -6.97265625 17.03515625 C-7.97167969 17.02355469 -8.97070312 17.01195312 -10 17 C-11.08164681 13.11559543 -11.03119577 11.20728941 -9.0625 7.6875 C-8.68222656 6.99011719 -8.30195313 6.29273438 -7.91015625 5.57421875 C-7.60980469 5.05472656 -7.30945313 4.53523437 -7 4 C-6.34 4 -5.68 4 -5 4 C-5 3.34 -5 2.68 -5 2 C-4.360625 1.855625 -3.72125 1.71125 -3.0625 1.5625 C-1.02454854 1.18992819 -1.02454854 1.18992819 0 0 Z " fill="#171819" transform="translate(295,242)"/>
<path d="M0 0 C2 1 2 1 5 3 C4.01 6.63 3.02 10.26 2 14 C1.01 14 0.02 14 -1 14 C-1 12.68 -1 11.36 -1 10 C-1.20625 8.824375 -1.4125 7.64875 -1.625 6.4375 C-2 3 -2 3 0 0 Z " fill="#0F1216" transform="translate(299,186)"/>
<path d="M0 0 C0.99 0.66 1.98 1.32 3 2 C2.34 2 1.68 2 1 2 C1.33 2.99 1.66 3.98 2 5 C2.66 4.67 3.32 4.34 4 4 C4 7 4 7 2.75 8.625 C1 10 1 10 -3 11 C-2.01 7.37 -1.02 3.74 0 0 Z " fill="#060606" transform="translate(321,248)"/>
<path d="M0 0 C0.66 0 1.32 0 2 0 C1.67 2.97 1.34 5.94 1 9 C0.01 8.67 -0.98 8.34 -2 8 C-2.125 5.125 -2.125 5.125 -2 2 C-1.34 1.34 -0.68 0.68 0 0 Z " fill="#131217" transform="translate(300,246)"/>
<path d="M0 0 C0.99 0 1.98 0 3 0 C3.93423645 3.01031744 4.04449911 3.86650268 3 7 C2.01 7.33 1.02 7.66 0 8 C-1.125 2.25 -1.125 2.25 0 0 Z " fill="#0D0E0F" transform="translate(258,227)"/>
<path d="M0 0 C-0.25 2.375 -0.25 2.375 -1 5 C-3.0625 6.3125 -3.0625 6.3125 -5 7 C-4.625 4.0625 -4.625 4.0625 -4 1 C-2 0 -2 0 0 0 Z " fill="#242725" transform="translate(291,247)"/>
<path d="M0 0 C0.66 0.33 1.32 0.66 2 1 C0.87926138 1.83905565 -0.24674547 2.67107831 -1.375 3.5 C-2.00148437 3.9640625 -2.62796875 4.428125 -3.2734375 4.90625 C-5 6 -5 6 -7 6 C-7.33 6.66 -7.66 7.32 -8 8 C-8.66 7.34 -9.32 6.68 -10 6 C-8.3811004 4.96951963 -6.75467511 3.95085322 -5.125 2.9375 C-4.22007812 2.36902344 -3.31515625 1.80054687 -2.3828125 1.21484375 C-1.20332031 0.61349609 -1.20332031 0.61349609 0 0 Z " fill="#060506" transform="translate(137,117)"/>
<path d="M0 0 C2.475 0.495 2.475 0.495 5 1 C4.67 2.65 4.34 4.3 4 6 C3.01 5.67 2.02 5.34 1 5 C0.67 3.35 0.34 1.7 0 0 Z " fill="#11131A" transform="translate(377,310)"/>
<path d="M0 0 C2.7839183 1.39195915 2.97898997 3.15575779 4 6 C2.68 6.33 1.36 6.66 0 7 C-1.04449911 3.86650268 -0.93423645 3.01031744 0 0 Z " fill="#050609" transform="translate(323,241)"/>
<path d="M0 0 C0.99 0.33 1.98 0.66 3 1 C2.6875 3.375 2.6875 3.375 2 6 C1.01 6.66 0.02 7.32 -1 8 C-1.04241723 5.66705225 -1.04092937 3.33297433 -1 1 C-0.67 0.67 -0.34 0.34 0 0 Z " fill="#040406" transform="translate(260,299)"/>
</svg>
